<svg xmlns="http://www.w3.org/2000/svg" width="420" height="300" viewBox="0 0 420 300" role="img" aria-label="Language distribution" font-size="13">
<style>
  .t{font:600 15px 'Segoe UI',Ubuntu,'Helvetica Neue',Arial,sans-serif;fill:#e6edf3}
  .l{font:400 12px 'Segoe UI',Ubuntu,'Helvetica Neue',Arial,sans-serif;fill:#8b949e}
  .v{font:600 12px 'SFMono-Regular',Consolas,'Liberation Mono',monospace;fill:#e6edf3}
  .fade{opacity:0;animation:fade .6s ease-out forwards}
  @keyframes fade{from{opacity:0;transform:translateY(6px)}to{opacity:1;transform:translateY(0)}}
  @media(prefers-reduced-motion:reduce){
    .fade,.cell{animation:none!important;opacity:1!important}
  }

</style>
<rect x="0.5" y="0.5" width="419" height="299" rx="8" fill="#0d1117" stroke="#1f2733"/>
<rect x="20" y="41" height="2" rx="1" fill="#00ADD8" width="0"><animate attributeName="width" from="0" to="34" dur="0.7s" begin="0.1s" fill="freeze"/></rect>
<text x="20" y="32" class="t fade" style="animation-delay:0s">Language distribution</text>
<clipPath id="barclip"><rect x="20" y="62" width="380" height="12" rx="6"/></clipPath>
<rect x="20" y="62" width="380" height="12" rx="6" fill="#161b22"/>
<g clip-path="url(#barclip)">
<rect x="20.00" y="62" height="12" width="0" fill="#00ADD8"><animate attributeName="width" from="0" to="152.70" dur="0.8s" begin="0.15s" fill="freeze"/></rect>
<rect x="172.70" y="62" height="12" width="0" fill="#f1e05a"><animate attributeName="width" from="0" to="97.00" dur="0.8s" begin="0.24s" fill="freeze"/></rect>
<rect x="269.70" y="62" height="12" width="0" fill="#e34c26"><animate attributeName="width" from="0" to="78.87" dur="0.8s" begin="0.33s" fill="freeze"/></rect>
<rect x="348.58" y="62" height="12" width="0" fill="#663399"><animate attributeName="width" from="0" to="25.33" dur="0.8s" begin="0.42s" fill="freeze"/></rect>
<rect x="373.90" y="62" height="12" width="0" fill="#3572A5"><animate attributeName="width" from="0" to="22.41" dur="0.8s" begin="0.51s" fill="freeze"/></rect>
<rect x="396.31" y="62" height="12" width="0" fill="#89e051"><animate attributeName="width" from="0" to="1.31" dur="0.8s" begin="0.60s" fill="freeze"/></rect>
<rect x="397.62" y="62" height="12" width="0" fill="#6e7681"><animate attributeName="width" from="0" to="2.38" dur="0.8s" begin="0.69s" fill="freeze"/></rect>
</g>
<g class="fade" style="animation-delay:0.35s">
<circle cx="25" cy="100" r="5" fill="#00ADD8"/>
<text x="37" y="104" class="l" fill="#e6edf3">Go</text>
<text x="37" y="119" class="v" fill="#8b949e">40.2%</text>
</g>
<g class="fade" style="animation-delay:0.42s">
<circle cx="215" cy="100" r="5" fill="#f1e05a"/>
<text x="227" y="104" class="l" fill="#e6edf3">JavaScript</text>
<text x="227" y="119" class="v" fill="#8b949e">25.5%</text>
</g>
<g class="fade" style="animation-delay:0.49s">
<circle cx="25" cy="134" r="5" fill="#e34c26"/>
<text x="37" y="138" class="l" fill="#e6edf3">HTML</text>
<text x="37" y="153" class="v" fill="#8b949e">20.8%</text>
</g>
<g class="fade" style="animation-delay:0.56s">
<circle cx="215" cy="134" r="5" fill="#663399"/>
<text x="227" y="138" class="l" fill="#e6edf3">CSS</text>
<text x="227" y="153" class="v" fill="#8b949e">6.7%</text>
</g>
<g class="fade" style="animation-delay:0.63s">
<circle cx="25" cy="168" r="5" fill="#3572A5"/>
<text x="37" y="172" class="l" fill="#e6edf3">Python</text>
<text x="37" y="187" class="v" fill="#8b949e">5.9%</text>
</g>
<g class="fade" style="animation-delay:0.70s">
<circle cx="215" cy="168" r="5" fill="#89e051"/>
<text x="227" y="172" class="l" fill="#e6edf3">Shell</text>
<text x="227" y="187" class="v" fill="#8b949e">0.3%</text>
</g>
<g class="fade" style="animation-delay:0.77s">
<circle cx="25" cy="202" r="5" fill="#6e7681"/>
<text x="37" y="206" class="l" fill="#e6edf3">Other</text>
<text x="37" y="221" class="v" fill="#8b949e">0.6%</text>
</g>
<text x="20" y="284" class="l fade" style="animation-delay:0.9s">2.0 MB across 10 public repositories</text>
</svg>